<svg xmlns="http://www.w3.org/2000/svg" version="1.1" xmlns:xlink="http://www.w3.org/1999/xlink" width="512" height="512" x="0" y="0" viewBox="0 0 60 60" style="enable-background:new 0 0 512 512" xml:space="preserve">
  <g>
    <path d="M54 44.21h-6.71v-2H52c.55 0 1-.45 1-1 0-11.52-8.52-21.09-19.59-22.74v-2.25h3.71c.55 0 1-.45 1-1 0-2.99-2.43-5.42-5.42-5.42h-5.42c-2.99 0-5.42 2.43-5.42 5.42 0 .55.45 1 1 1h3.72v2.25C15.52 20.11 7 29.68 7 41.21c0 .55.45 1 1 1h4.71v2H6c-.55 0-1 .45-1 1v4c0 .55.45 1 1 1h48c.55 0 1-.45 1-1v-4c0-.55-.45-1-1-1zM27.29 11.79h5.42c1.54 0 2.84 1.02 3.27 2.42H24.02c.44-1.4 1.74-2.42 3.27-2.42zm1.3 4.42h2.82v2.05c-.47-.03-.94-.05-1.41-.05s-.94.02-1.41.05zm1.41 4c11.24 0 20.45 8.88 20.98 20H9.02c.53-11.12 9.74-20 20.98-20zm-15.29 22h30.57v2H14.71zm38.29 6H7v-2h46zM52.76 20.18c.2.21.47.32.73.32.24 0 .49-.09.68-.27.41-.38.43-1.01.06-1.41a33.26 33.26 0 0 0-12.56-8.48c-.51-.2-1.09.06-1.29.58s.06 1.09.58 1.29c4.46 1.69 8.54 4.45 11.8 7.97z" fill="#dc2626" opacity="1"/>
    <path d="M41.6 16.81a.996.996 0 0 0 .42 1.35 26.53 26.53 0 0 1 5.97 4.29c.19.19.44.28.69.28.26 0 .53-.1.72-.31.38-.4.37-1.03-.03-1.41a28.302 28.302 0 0 0-6.42-4.62.996.996 0 0 0-1.35.42zM5.77 18.82a.988.988 0 0 0 .06 1.41.995.995 0 0 0 1.41-.05c3.26-3.52 7.34-6.28 11.8-7.97.52-.2.78-.77.58-1.29s-.78-.78-1.29-.58a33.26 33.26 0 0 0-12.56 8.48zM17.05 16.39a27.867 27.867 0 0 0-6.42 4.62.996.996 0 0 0-.03 1.41c.2.2.46.31.72.31.25 0 .5-.09.69-.28 1.78-1.71 3.79-3.15 5.97-4.29.49-.26.68-.86.42-1.35s-.86-.68-1.35-.42zM30 24.21c.55 0 1-.45 1-1s-.45-1-1-1c-8.79 0-16.58 6.21-18.53 14.78-.12.54.21 1.07.75 1.2.07.02.15.03.22.03.46 0 .87-.31.97-.78 1.76-7.67 8.73-13.23 16.59-13.23z" fill="#dc2626" opacity="1"/>
  </g>
</svg>
